name C:\Users\u0101727\Documents\MyRepositories\upper-imu-dc\Results\main_tracking\Case_41\kinematics.mot
datacolumns 10
datarows 42
range 0.50000000 0.91000000
endheader 
time	clav_prot	clav_elev	scapula_abduction	scapula_elevation	scapula_upward_rot	scapula_winging	plane_elv	shoulder_elv	axial_rot	
          0.50000000	        -23.88417648	         -6.30336228	        -15.02687846	         -4.83152858	         10.31990375	          6.73394104	        -30.11614878	         13.36370083	         45.89837515	
          0.51000000	        -23.30115705	         -6.25193941	        -14.77746765	         -4.87091497	         10.34458027	          6.74349470	        -29.42137912	         13.41428223	         45.33553674	
          0.52000000	        -23.30270227	         -6.29398031	        -14.75694897	         -4.91029588	         10.36926978	          6.75312090	        -28.72575150	         13.46480763	         44.77278592	
          0.53000000	        -23.30341176	         -6.33627650	        -14.73522260	         -4.94968844	         10.39347313	          6.76301114	        -28.02754275	         13.51478513	         44.20981763	
          0.54000000	        -23.30159177	         -6.37884414	        -14.70971513	         -4.98883290	         10.41656901	          6.77327616	        -27.32487356	         13.56408494	         43.64664897	
          0.55000000	        -23.30006779	         -6.42140621	        -14.68552092	         -5.02760616	         10.43824770	          6.78395863	        -26.61557317	         13.61277473	         43.08312266	
          0.56000000	        -23.29863874	         -6.46387537	        -14.66230276	         -5.06593460	         10.45853081	          6.79501408	        -25.89706271	         13.66091942	         42.51892351	
          0.57000000	        -23.29944273	         -6.50606693	        -14.64355203	         -5.10391898	         10.47783047	          6.80633009	        -25.16644135	         13.70882059	         41.95320177	
          0.58000000	        -23.30152290	         -6.54806227	        -14.62725798	         -5.14173306	         10.49677489	          6.81776156	        -24.42046999	         13.75685939	         41.38440157	
          0.59000000	        -23.30580265	         -6.58992827	        -14.61474177	         -5.17960843	         10.51581860	          6.82925015	        -23.65576168	         13.80551808	         40.81007936	
          0.60000000	        -23.31203079	         -6.63169698	        -14.60515958	         -5.21775123	         10.53569277	          6.84062795	        -22.86862963	         13.85571315	         40.22662572	
          0.61000000	        -23.31965211	         -6.67343605	        -14.59724108	         -5.25632509	         10.55693932	          6.85177814	        -22.05527488	         13.90860971	         39.62939963	
          0.62000000	        -23.32814635	         -6.71521534	        -14.58988658	         -5.29544303	         10.57989909	          6.86263412	        -21.21192900	         13.96546549	         39.01263275	
          0.63000000	        -23.33874207	         -6.75695364	        -14.58500010	         -5.33522600	         10.60497701	          6.87310326	        -20.33481528	         14.02771199	         38.36989108	
          0.64000000	        -23.35259989	         -6.79850416	        -14.58414620	         -5.37585394	         10.63300385	          6.88296438	        -19.42018893	         14.09701083	         37.69415671	
          0.65000000	        -23.36989895	         -6.83986103	        -14.58700619	         -5.41763385	         10.66510541	          6.89195452	        -18.46446916	         14.17504790	         36.97848288	
          0.66000000	        -23.39000638	         -6.88113995	        -14.59193823	         -5.46086687	         10.70222518	          6.89988050	        -17.46455936	         14.26320195	         36.21620041	
          0.67000000	        -23.41202403	         -6.92249992	        -14.59691041	         -5.50583312	         10.74516860	          6.90659420	        -16.41797289	         14.36278511	         35.40146741	
          0.68000000	        -23.43445112	         -6.96389876	        -14.59909068	         -5.55252523	         10.79439454	          6.91193776	        -15.32292901	         14.47516879	         34.52933233	
          0.69000000	        -23.45670336	         -7.00500335	        -14.59746325	         -5.60067925	         10.85003807	          6.91573893	        -14.17842457	         14.60177807	         33.59604800	
          0.70000000	        -23.47904086	         -7.04536619	        -14.59249689	         -5.64998864	         10.91221354	          6.91780352	        -12.98417786	         14.74390172	         32.59933878	
          0.71000000	        -23.50189330	         -7.08461705	        -14.58487978	         -5.70024170	         10.98112885	          6.91794673	        -11.74052531	         14.90254603	         31.53852242	
          0.72000000	        -23.52532265	         -7.12255202	        -14.57459080	         -5.75135099	         11.05706211	          6.91602254	        -10.44835247	         15.07843271	         30.41458486	
          0.73000000	        -23.54881693	         -7.15910885	        -14.56062863	         -5.80328423	         11.14022308	          6.91194394	         -9.10910057	         15.27202965	         29.23017390	
          0.74000000	        -23.57164596	         -7.19426919	        -14.54171755	         -5.85597596	         11.23062250	          6.90568401	         -7.72472600	         15.48361259	         27.98947532	
          0.75000000	        -23.59316358	         -7.22801926	        -14.51684322	         -5.90931258	         11.32805860	          6.89727004	         -6.29767245	         15.71329125	         26.69806369	
          0.76000000	        -23.61292954	         -7.26034800	        -14.48544266	         -5.96314871	         11.43215363	          6.88677615	         -4.83077846	         15.96103096	         25.36263688	
          0.77000000	        -23.63070244	         -7.29126793	        -14.44735771	         -6.01733798	         11.54240876	          6.87431826	         -3.32719398	         16.22667908	         23.99070106	
          0.78000000	        -23.64640340	         -7.32083076	        -14.40274323	         -6.07175579	         11.65825176	          6.86004830	         -1.79031323	         16.51000234	         22.59021922	
          0.79000000	        -23.66008780	         -7.34912980	        -14.35199557	         -6.12631057	         11.77907825	          6.84414510	         -0.22373440	         16.81073181	         21.16925589	
          0.80000000	        -23.67195445	         -7.37629045	        -14.29574868	         -6.18094734	         11.90429062	          6.82680184	          1.36876118	         17.12860260	         19.73564115	
          0.81000000	        -23.68230028	         -7.40246264	        -14.23477292	         -6.23565081	         12.03334283	          6.80821190	          2.98322212	         17.46338638	         18.29667285	
          0.82000000	        -23.69150478	         -7.42780590	        -14.16993362	         -6.29044082	         12.16577144	          6.78855549	          4.61555142	         17.81490811	         16.85885074	
          0.83000000	        -23.69997344	         -7.45247553	        -14.10207947	         -6.34536579	         12.30122596	          6.76798599	          6.26154866	         18.18305788	         15.42765327	
          0.84000000	        -23.70808161	         -7.47660788	        -14.03194210	         -6.40049057	         12.43948037	          6.74662017	          7.91697189	         18.56778870	         14.00735562	
          0.85000000	        -23.71613612	         -7.50030321	        -13.96007481	         -6.45587960	         12.58043013	          6.72453083	          9.57761468	         18.96910370	         12.60089509	
          0.86000000	        -23.72436933	         -7.52360766	        -13.88685311	         -6.51157876	         12.72407859	          6.70174201	         11.23938675	         19.38703029	         11.20979425	
          0.87000000	        -23.73295875	         -7.54649736	        -13.81251916	         -6.56760035	         12.87052271	          6.67822546	         12.89838955	         19.82158488	          9.83414913	
          0.88000000	        -23.74206074	         -7.56886703	        -13.73724651	         -6.62391372	         13.01994370	          6.65389802	         14.55097909	         20.27273283	          8.47268527	
          0.89000000	        -23.75185071	         -7.59052500	        -13.66120976	         -6.68044345	         13.17260618	          6.62861980	         16.19380965	         20.74034994	          7.12288078	
          0.90000000	        -23.76256107	         -7.61119548	        -13.58464357	         -6.73707542	         13.32886650	          6.60219330	         17.82385673	         21.22419070	          5.78114967	
          0.91000000	        -23.77450979	         -7.63052898	        -13.50787851	         -6.79367065	         13.48918963	          6.57436397	         19.43841906	         21.72386658	          4.44307869	
